<svg width="400" height="400" viewBox="0 0 400 400" fill="none" xmlns="http://www.w3.org/2000/svg">
<rect x="1" y="1" width="398" height="398" rx="199" fill="#FAFAFA"/>
<path d="M265.65 307.64C252.91 319.99 239 318.04 225.61 312.19C211.44 306.21 198.44 305.95 183.49 312.19C164.77 320.25 154.89 317.91 143.71 307.64C80.2702 242.25 89.6302 142.67 161.65 139.03C179.2 139.94 191.42 148.65 201.69 149.43C217.03 146.31 231.72 137.34 248.1 138.51C267.73 140.07 282.55 147.87 292.3 161.91C251.74 186.22 261.36 239.65 298.54 254.6C291.13 274.1 281.51 293.47 265.52 307.77L265.65 307.64ZM200.39 138.25C198.44 109.26 221.97 85.34 249.01 83C252.78 116.54 218.59 141.5 200.39 138.25Z" fill="#0A0A0A"/>
<rect x="1" y="1" width="398" height="398" rx="199" stroke="#0A0A0A" stroke-width="2"/>
</svg>
