<svg width="17" height="16" viewBox="0 0 17 16" fill="none" xmlns="http://www.w3.org/2000/svg">
<path d="M11.8671 13.52C11.2138 14.1533 10.5004 14.0533 9.81377 13.7533C9.0871 13.4467 8.42043 13.4333 7.65377 13.7533C6.69377 14.1667 6.1871 14.0467 5.61377 13.52C2.36043 10.1667 2.84044 5.06 6.53377 4.87333C7.43377 4.92 8.06044 5.36667 8.5871 5.40667C9.37377 5.24667 10.1271 4.78667 10.9671 4.84667C11.9738 4.92667 12.7338 5.32667 13.2338 6.04667C11.1538 7.29333 11.6471 10.0333 13.5538 10.8C13.1738 11.8 12.6804 12.7933 11.8604 13.5267L11.8671 13.52ZM8.52043 4.83333C8.42043 3.34667 9.6271 2.12 11.0138 2C11.2071 3.72 9.45377 5 8.52043 4.83333Z" fill="#0A0A0A"/>
</svg>
