<svg width="403" height="255" viewBox="0 0 403 255" fill="none" xmlns="http://www.w3.org/2000/svg">
<rect width="403" height="255" rx="8" fill="#1A1A1A"/>
<path d="M111.57 162.341C101.624 182.118 79.3554 221.079 66.6051 242.517C63.3711 247.955 67.3135 255 73.6401 255H395C399.418 255 403 251.418 403 247V14.4249C403 10.6568 400.429 7.42432 396.717 6.77632C371.334 2.34522 276.397 -10.4747 248.773 39.7332C226.306 80.5666 275.707 125.005 248.773 162.341C215.227 208.841 124.089 137.448 111.57 162.341Z" fill="url(#paint0_linear_50_669)" fill-opacity="0.7"/>
<g filter="url(#filter0_b_50_669)">
<rect width="403" height="255" rx="8" fill="#242424" fill-opacity="0.1"/>
</g>
<path d="M45.7333 42.04C44.4267 43.3067 43 43.1067 41.6267 42.5067C40.1733 41.8933 38.84 41.8667 37.3067 42.5067C35.3867 43.3333 34.3733 43.0933 33.2267 42.04C26.72 35.3333 27.68 25.12 35.0667 24.7467C36.8667 24.84 38.12 25.7333 39.1733 25.8133C40.7467 25.4933 42.2533 24.5733 43.9333 24.6933C45.9467 24.8533 47.4667 25.6533 48.4667 27.0933C44.3067 29.5867 45.2933 35.0667 49.1067 36.6C48.3467 38.6 47.36 40.5867 45.72 42.0533L45.7333 42.04ZM39.04 24.6667C38.84 21.6933 41.2533 19.24 44.0267 19C44.4134 22.44 40.9067 25 39.04 24.6667Z" fill="white"/>
<path d="M66.475 42.375C60.2562 42.375 56.3187 37.8594 56.3187 30.7188C56.3187 23.6406 60.3031 19.0781 66.475 19.0781C71.3812 19.0781 75.1156 22.0625 75.8344 26.5625H72.9906C72.2719 23.6094 69.6937 21.6719 66.475 21.6719C62.0687 21.6719 59.2094 25.2344 59.2094 30.7188C59.2094 36.25 62.0375 39.7812 66.4906 39.7812C69.8031 39.7812 72.1781 38.1875 72.9906 35.4375H75.8344C74.8031 39.8906 71.4594 42.375 66.475 42.375ZM78.1006 42V25.75H80.6631V28.4062H80.7256C81.2569 26.6094 82.7569 25.4688 84.6631 25.4688C85.1319 25.4688 85.5381 25.5469 85.7569 25.5781V28.2188C85.5381 28.1406 84.96 28.0625 84.3037 28.0625C82.1944 28.0625 80.8194 29.5781 80.8194 31.875V42H78.1006ZM88.6794 48.0781C88.3512 48.0781 87.8044 48.0469 87.5075 47.9844V45.7031C87.8044 45.7656 88.2262 45.7812 88.57 45.7812C90.0856 45.7812 90.9294 45.0469 91.5544 43.1562L91.9294 42.0156L85.9294 25.75H88.8356L93.3356 39.2812H93.3825L97.8825 25.75H100.742L94.3512 43.1406C92.9606 46.9375 91.6169 48.0781 88.6794 48.0781ZM110.149 25.4688C114.289 25.4688 117.102 28.7812 117.102 33.875C117.102 38.9688 114.305 42.2812 110.211 42.2812C107.883 42.2812 106.008 41.1406 105.039 39.3594H104.977V47.4219H102.258V25.75H104.836V28.5H104.899C105.899 26.6719 107.789 25.4688 110.149 25.4688ZM109.618 39.8906C112.508 39.8906 114.321 37.5625 114.321 33.875C114.321 30.2031 112.508 27.8594 109.618 27.8594C106.836 27.8594 104.961 30.2656 104.961 33.875C104.961 37.5 106.836 39.8906 109.618 39.8906ZM120.087 21.8281H122.806V25.75H125.962V27.9844H122.806V37.6406C122.806 39.125 123.431 39.7969 124.821 39.7969C125.134 39.7969 125.759 39.75 125.946 39.7188V42C125.618 42.0781 124.868 42.125 124.227 42.125C121.243 42.125 120.087 40.9062 120.087 37.7812V27.9844H117.665V25.75H120.087V21.8281ZM134.494 42.2812C129.994 42.2812 126.963 39.0469 126.963 33.875C126.963 28.6875 129.994 25.4688 134.494 25.4688C138.978 25.4688 142.009 28.6875 142.009 33.875C142.009 39.0469 138.978 42.2812 134.494 42.2812ZM134.494 39.8906C137.369 39.8906 139.244 37.7031 139.244 33.875C139.244 30.0469 137.369 27.8594 134.494 27.8594C131.619 27.8594 129.728 30.0469 129.728 33.875C129.728 37.7031 131.619 39.8906 134.494 39.8906Z" fill="white"/>
<defs>
<filter id="filter0_b_50_669" x="-16" y="-16" width="435" height="287" filterUnits="userSpaceOnUse" color-interpolation-filters="sRGB">
<feFlood flood-opacity="0" result="BackgroundImageFix"/>
<feGaussianBlur in="BackgroundImageFix" stdDeviation="8"/>
<feComposite in2="SourceAlpha" operator="in" result="effect1_backgroundBlur_50_669"/>
<feBlend mode="normal" in="SourceGraphic" in2="effect1_backgroundBlur_50_669" result="shape"/>
</filter>
<linearGradient id="paint0_linear_50_669" x1="151.689" y1="2" x2="319.031" y2="2" gradientUnits="userSpaceOnUse">
<stop stop-color="#D8DDE0"/>
<stop offset="1" stop-color="#56A9FE" stop-opacity="0.7"/>
</linearGradient>
</defs>
</svg>
