<svg width="49" height="48" viewBox="0 0 49 48" fill="none" xmlns="http://www.w3.org/2000/svg">
<path d="M34.25 40.56C32.29 42.46 30.15 42.16 28.09 41.26C25.91 40.34 23.91 40.3 21.61 41.26C18.73 42.5 17.21 42.14 15.49 40.56C5.72999 30.5 7.16999 15.18 18.25 14.62C20.95 14.76 22.83 16.1 24.41 16.22C26.77 15.74 29.03 14.36 31.55 14.54C34.57 14.78 36.85 15.98 38.35 18.14C32.11 21.88 33.59 30.1 39.31 32.4C38.17 35.4 36.69 38.38 34.23 40.58L34.25 40.56ZM24.21 14.5C23.91 10.04 27.53 6.36 31.69 6C32.27 11.16 27.01 15 24.21 14.5Z" fill="#0A0A0A"/>
</svg>
