<svg width="16" height="16" viewBox="0 0 16 16" fill="none" xmlns="http://www.w3.org/2000/svg">
<path d="M4.6002 14.1496C4.47798 14.0162 4.41409 13.8607 4.40854 13.6829C4.40298 13.5051 4.46687 13.3496 4.6002 13.2162L9.8502 7.96622L4.6002 2.71622C4.47798 2.594 4.41409 2.44122 4.40854 2.25789C4.40298 2.07455 4.46687 1.91622 4.6002 1.78289C4.72243 1.64955 4.8752 1.58011 5.05854 1.57455C5.24187 1.569 5.4002 1.63289 5.53354 1.76622L11.3835 7.61622C11.4391 7.67177 11.478 7.72733 11.5002 7.78289C11.5224 7.83844 11.5335 7.89955 11.5335 7.96622C11.5335 8.03289 11.5224 8.094 11.5002 8.14955C11.478 8.20511 11.4391 8.26066 11.3835 8.31622L5.53354 14.1662C5.41131 14.2884 5.25854 14.3496 5.0752 14.3496C4.89187 14.3496 4.73354 14.2829 4.6002 14.1496Z" fill="white" fill-opacity="0.8"/>
</svg>
