<svg width="17" height="16" viewBox="0 0 17 16" fill="none" xmlns="http://www.w3.org/2000/svg">
<path d="M5.24998 14.1496C5.12776 14.0162 5.06387 13.8607 5.05832 13.6829C5.05276 13.5051 5.11665 13.3496 5.24998 13.2162L10.5 7.96622L5.24998 2.71622C5.12776 2.594 5.06387 2.44122 5.05832 2.25789C5.05276 2.07455 5.11665 1.91622 5.24998 1.78289C5.37221 1.64955 5.52498 1.58011 5.70832 1.57455C5.89165 1.569 6.04998 1.63289 6.18332 1.76622L12.0333 7.61622C12.0889 7.67177 12.1278 7.72733 12.15 7.78289C12.1722 7.83844 12.1833 7.89955 12.1833 7.96622C12.1833 8.03289 12.1722 8.094 12.15 8.14955C12.1278 8.20511 12.0889 8.26066 12.0333 8.31622L6.18332 14.1662C6.06109 14.2884 5.90832 14.3496 5.72498 14.3496C5.54165 14.3496 5.38332 14.2829 5.24998 14.1496Z" fill="#0A0A0A"/>
</svg>
