<svg width="16" height="16" viewBox="0 0 16 16" fill="none" xmlns="http://www.w3.org/2000/svg">
<path d="M4.60002 14.1496C4.4778 14.0162 4.41391 13.8607 4.40835 13.6829C4.4028 13.5051 4.46669 13.3496 4.60002 13.2162L9.85002 7.96622L4.60002 2.71622C4.4778 2.594 4.41391 2.44122 4.40835 2.25789C4.4028 2.07455 4.46669 1.91622 4.60002 1.78289C4.72224 1.64955 4.87502 1.58011 5.05835 1.57455C5.24169 1.569 5.40002 1.63289 5.53335 1.76622L11.3834 7.61622C11.4389 7.67177 11.4778 7.72733 11.5 7.78289C11.5222 7.83844 11.5334 7.89955 11.5334 7.96622C11.5334 8.03289 11.5222 8.094 11.5 8.14955C11.4778 8.20511 11.4389 8.26066 11.3834 8.31622L5.53335 14.1662C5.41113 14.2884 5.25835 14.3496 5.07502 14.3496C4.89169 14.3496 4.73335 14.2829 4.60002 14.1496Z" fill="white"/>
</svg>
