<svg width="17" height="17" viewBox="0 0 17 17" fill="none" xmlns="http://www.w3.org/2000/svg">
<path d="M8.49981 9.24374L4.78105 12.9625C4.6748 13.0687 4.55085 13.1219 4.40918 13.1219C4.26751 13.1219 4.14355 13.0687 4.0373 12.9625C3.93105 12.8562 3.87793 12.7323 3.87793 12.5906C3.87793 12.4489 3.93105 12.325 4.0373 12.2187L7.75606 8.49999L4.0373 4.78124C3.93105 4.67499 3.87793 4.55103 3.87793 4.40936C3.87793 4.2677 3.93105 4.14374 4.0373 4.03749C4.14355 3.93124 4.26751 3.87811 4.40918 3.87811C4.55085 3.87811 4.6748 3.93124 4.78105 4.03749L8.49981 7.75624L12.2186 4.03749C12.3248 3.93124 12.4488 3.87811 12.5904 3.87811C12.7321 3.87811 12.8561 3.93124 12.9623 4.03749C13.0686 4.14374 13.1217 4.2677 13.1217 4.40936C13.1217 4.55103 13.0686 4.67499 12.9623 4.78124L9.24356 8.49999L12.9623 12.2187C13.0686 12.325 13.1217 12.4489 13.1217 12.5906C13.1217 12.7323 13.0686 12.8562 12.9623 12.9625C12.8561 13.0687 12.7321 13.1219 12.5904 13.1219C12.4488 13.1219 12.3248 13.0687 12.2186 12.9625L8.49981 9.24374Z" fill="#0A0A0A"/>
</svg>
