<svg width="17" height="16" viewBox="0 0 17 16" fill="none" xmlns="http://www.w3.org/2000/svg">
<path d="M13.6772 13.7077L9.35157 9.38202C9.01992 9.67551 8.6332 9.90166 8.1914 10.0605C7.7496 10.2193 7.2923 10.2987 6.81951 10.2987C5.68759 10.2987 4.72961 9.90694 3.94558 9.12346C3.16155 8.33997 2.76953 7.38997 2.76953 6.27347C2.76953 5.15697 3.16128 4.20663 3.94476 3.42244C4.72825 2.63825 5.67947 2.24615 6.79841 2.24615C7.91737 2.24615 8.86879 2.638 9.65267 3.4217C10.4365 4.20539 10.8285 5.15569 10.8285 6.2726C10.8285 6.73958 10.7486 7.19422 10.5887 7.63652C10.4289 8.07883 10.1977 8.47947 9.89513 8.83844L14.231 13.1474L13.6772 13.7077ZM6.80926 9.5423C7.71988 9.5423 8.49133 9.22499 9.12363 8.59037C9.75593 7.95576 10.0721 7.18311 10.0721 6.27242C10.0721 5.36174 9.75593 4.58909 9.12363 3.95447C8.49133 3.31986 7.71988 3.00255 6.80926 3.00255C5.89295 3.00255 5.11665 3.31986 4.48036 3.95447C3.84408 4.58909 3.52593 5.36174 3.52593 6.27242C3.52593 7.18311 3.84408 7.95576 4.48036 8.59037C5.11665 9.22499 5.89295 9.5423 6.80926 9.5423Z" fill="#0A0A0A"/>
</svg>
