<svg width="17" height="16" viewBox="0 0 17 16" fill="none" xmlns="http://www.w3.org/2000/svg">
<path d="M13.5 14.6667H3.5C3.23333 14.6667 3 14.5667 2.8 14.3667C2.6 14.1667 2.5 13.9333 2.5 13.6667V4.83332C2.5 4.56666 2.6 4.33332 2.8 4.13332C3 3.93332 3.23333 3.83332 3.5 3.83332H5.33333C5.33333 2.95555 5.62778 2.20832 6.21667 1.59166C6.80556 0.97499 7.53889 0.666656 8.41667 0.666656C9.29445 0.666656 10.0556 0.975407 10.7 1.59291C11.3444 2.21041 11.6667 2.95721 11.6667 3.83332H13.5C13.7667 3.83332 14 3.93332 14.2 4.13332C14.4 4.33332 14.5 4.56666 14.5 4.83332V13.6667C14.5 13.9333 14.4 14.1667 14.2 14.3667C14 14.5667 13.7667 14.6667 13.5 14.6667ZM6.33333 3.83332H10.6667C10.6667 3.22221 10.4583 2.70832 10.0417 2.29166C9.625 1.87499 9.11111 1.66666 8.5 1.66666C7.88889 1.66666 7.375 1.87499 6.95833 2.29166C6.54167 2.70832 6.33333 3.22221 6.33333 3.83332ZM13.5 13.6667V4.83332H3.5V13.6667H13.5ZM8.4954 8.83332C9.31456 8.83332 10.0562 8.54721 10.7204 7.97499C11.3846 7.40277 11.7167 6.7611 11.7167 6.04999C11.7167 5.92777 11.6667 5.81943 11.5667 5.72499C11.4667 5.63055 11.3436 5.58332 11.1975 5.58332C11.0772 5.58332 10.9697 5.62499 10.8751 5.70832C10.7806 5.79166 10.7222 5.89999 10.7 6.03332C10.5889 6.55555 10.325 6.9861 9.90833 7.32499C9.49167 7.66388 9.02222 7.83332 8.5 7.83332C7.97778 7.83332 7.50833 7.66388 7.09167 7.32499C6.675 6.9861 6.41111 6.55555 6.3 6.03332C6.27778 5.89999 6.21667 5.79166 6.11667 5.70832C6.01667 5.62499 5.90556 5.58332 5.78333 5.58332C5.65 5.58332 5.53333 5.63055 5.43333 5.72499C5.33333 5.81943 5.28333 5.92777 5.28333 6.04999C5.28333 6.76187 5.61389 7.40373 6.275 7.97557C6.93611 8.54741 7.67624 8.83332 8.4954 8.83332Z" fill="#0A0A0A"/>
</svg>
