<svg width="25" height="24" viewBox="0 0 25 24" fill="none" xmlns="http://www.w3.org/2000/svg">
<path d="M7.1254 21.2248C6.94207 21.0248 6.84624 20.7915 6.8379 20.5248C6.82957 20.2582 6.9254 20.0248 7.1254 19.8248L15.0004 11.9498L7.1254 4.07482C6.94207 3.89148 6.84624 3.66232 6.8379 3.38732C6.82957 3.11232 6.9254 2.87482 7.1254 2.67482C7.30874 2.47482 7.5379 2.37065 7.8129 2.36232C8.0879 2.35398 8.3254 2.44982 8.5254 2.64982L17.3004 11.4248C17.3837 11.5081 17.4421 11.5915 17.4754 11.6748C17.5087 11.7581 17.5254 11.8498 17.5254 11.9498C17.5254 12.0498 17.5087 12.1415 17.4754 12.2248C17.4421 12.3081 17.3837 12.3915 17.3004 12.4748L8.5254 21.2498C8.34207 21.4332 8.1129 21.5248 7.8379 21.5248C7.5629 21.5248 7.3254 21.4248 7.1254 21.2248Z" fill="url(#paint0_linear_133_11)"/>
<defs>
<linearGradient id="paint0_linear_133_11" x1="9.71722" y1="2.36182" x2="14.9165" y2="2.36182" gradientUnits="userSpaceOnUse">
<stop stop-color="#1E3791"/>
<stop offset="0.302083" stop-color="#2948B1"/>
<stop offset="0.739583" stop-color="#3C77B3"/>
<stop offset="1" stop-color="#3C77B3"/>
</linearGradient>
</defs>
</svg>
